<svg version="1.1" xmlns="http://www.w3.org/2000/svg" viewBox="0 0 3497.9127518945434 1403.6116654640375" width="3497.9127518945434" height="1403.6116654640375">
  <!-- svg-source:excalidraw -->
  
  <defs>
    <style>
      @font-face {
        font-family: "Virgil";
        src: url("https://excalidraw.com/Virgil.woff2");
      }
      @font-face {
        font-family: "Cascadia";
        src: url("https://excalidraw.com/Cascadia.woff2");
      }
    </style>
  </defs>
  <rect x="0" y="0" width="3497.9127518945434" height="1403.6116654640375" fill="#ffffff"></rect><g stroke-linecap="round" transform="translate(10 626.6748853560882) rotate(0 238.5 75.67376634331504)"><path d="M37.84 0 M37.84 0 C125.17 2.58, 216.16 2.98, 439.16 0 M439.16 0 C467.9 -1.98, 477.72 15.99, 477 37.84 M477 37.84 C479.74 60.81, 481.41 90.57, 477 113.51 M477 113.51 C473.67 135.39, 463.54 153.14, 439.16 151.35 M439.16 151.35 C357.99 150.72, 275.9 153.37, 37.84 151.35 M37.84 151.35 C9.59 151.15, 1 136.99, 0 113.51 M0 113.51 C1.69 90.09, 1.23 73.95, 0 37.84 M0 37.84 C-3.25 14.07, 9.41 3.74, 37.84 0" stroke="#000000" stroke-width="4.5" fill="none" stroke-dasharray="8 12"></path></g><g transform="translate(75.53333333333376 669.8972536792082) rotate(0 183.23333333333312 34.5)"><text x="0" y="47.99999999999997" font-family="Virgil, Segoe UI Emoji" font-size="55.199999999999946px" fill="#000000" text-anchor="start" style="white-space: pre;" direction="ltr">NewOrderMain</text></g><g transform="translate(421.7666666666669 564.0869088516221) rotate(0 18.5 44.65517241379308)"><text x="0" y="63.31034482758619" font-family="Virgil, Segoe UI Emoji" font-size="70.42758620689648px" fill="#000000" text-anchor="start" style="white-space: pre;" direction="ltr">*</text></g><g stroke-linecap="round" transform="translate(1130.6015773361185 416.0280539050617) rotate(0 146.76487845766985 65.80678960603524)"><path d="M32.9 0 M32.9 0 C110.73 0.52, 189.28 4.39, 260.63 0 M260.63 0 C280.64 -3.5, 289.69 10.85, 293.53 32.9 M293.53 32.9 C291.97 49.09, 297.08 57.69, 293.53 98.71 M293.53 98.71 C290.7 118.37, 279.51 128.8, 260.63 131.61 M260.63 131.61 C178.03 137.12, 89.16 135.33, 32.9 131.61 M32.9 131.61 C8.22 134.08, -0.18 116.81, 0 98.71 M0 98.71 C-3.15 85.38, 3.57 70.08, 0 32.9 M0 32.9 C1.29 8.91, 14.19 0.18, 32.9 0" stroke="#1864ab" stroke-width="4.5" fill="none" stroke-dasharray="8 12"></path></g><g transform="translate(1172.9233090194855 446.8713062101749) rotate(0 105 35)"><text x="0" y="49" font-family="Virgil, Segoe UI Emoji" font-size="55.199999999999946px" fill="#1864ab" text-anchor="start" style="white-space: pre;" direction="ltr">&lt;Order&gt;</text></g><g stroke-linecap="round" transform="translate(317.9240516227685 406.47660909181013) rotate(0 359.3964781216649 71.75852658752298)"><path d="M35.88 0 M35.88 0 C294.03 3.07, 551.53 5.85, 682.91 0 M682.91 0 C709.34 -1.54, 715.13 14.62, 718.79 35.88 M718.79 35.88 C718.81 55.34, 716.54 77.68, 718.79 107.64 M718.79 107.64 C716.36 131.82, 703.14 143.07, 682.91 143.52 M682.91 143.52 C478.77 146.11, 276.34 145.57, 35.88 143.52 M35.88 143.52 C10.67 142.66, -1.49 128.63, 0 107.64 M0 107.64 C0.91 85.46, -0.24 67.36, 0 35.88 M0 35.88 C-2.25 15.41, 13.17 -3.19, 35.88 0" stroke="#000000" stroke-width="4.5" fill="none" stroke-dasharray="8 12"></path></g><g transform="translate(354.77008506282573 439.3366724597833) rotate(0 329 35)"><text x="0" y="49" font-family="Virgil, Segoe UI Emoji" font-size="55.199999999999946px" fill="#000000" text-anchor="start" style="white-space: pre;" direction="ltr">KafkaDispatcher&lt;Order&gt;</text></g><g stroke-linecap="round" transform="translate(1099.971223579329 877.8219863866777) rotate(0 146.76487845766985 65.80678960603524)"><path d="M32.9 0 M32.9 0 C92.11 -3.01, 158.88 0.57, 260.63 0 M260.63 0 C283.06 -2.47, 294.97 12.24, 293.53 32.9 M293.53 32.9 C294.59 43.08, 290.41 63.05, 293.53 98.71 M293.53 98.71 C293.78 119.12, 278.68 132.04, 260.63 131.61 M260.63 131.61 C191.17 128.77, 118.66 131.86, 32.9 131.61 M32.9 131.61 C12.69 133.84, -3.07 122.57, 0 98.71 M0 98.71 C1.18 84.31, -3.74 63.52, 0 32.9 M0 32.9 C1.97 12.31, 11.66 -2.63, 32.9 0" stroke="#1864ab" stroke-width="4.5" fill="none" stroke-dasharray="8 12"></path></g><g transform="translate(1142.292955262696 908.6652386917909) rotate(0 98 35)"><text x="0" y="49" font-family="Virgil, Segoe UI Emoji" font-size="55.199999999999946px" fill="#1864ab" text-anchor="start" style="white-space: pre;" direction="ltr">&lt;Email&gt;</text></g><g stroke-linecap="round" transform="translate(321.4452453579753 858.7748743942665) rotate(0 345.73585912486675 76.83952988719795)"><path d="M38.42 0 M38.42 0 C256.65 2.6, 472.32 0.39, 653.05 0 M653.05 0 C680.11 1.27, 687.94 13.49, 691.47 38.42 M691.47 38.42 C688.45 67.14, 692.05 89.79, 691.47 115.26 M691.47 115.26 C687.59 141.3, 679.07 151.13, 653.05 153.68 M653.05 153.68 C466.21 149.45, 280.78 150.29, 38.42 153.68 M38.42 153.68 C9.74 155.6, -2.07 142.39, 0 115.26 M0 115.26 C-3.89 97.12, 1.32 85.37, 0 38.42 M0 38.42 C0.7 10.18, 16.52 -0.63, 38.42 0" stroke="#000000" stroke-width="4.5" fill="none" stroke-dasharray="8 12"></path></g><g transform="translate(348.7288455002738 901.1306049413995) rotate(0 322.5 35)"><text x="0" y="49" font-family="Virgil, Segoe UI Emoji" font-size="55.199999999999946px" fill="#000000" text-anchor="start" style="white-space: pre;" direction="ltr">KafkaDispatcher&lt;Email&gt;</text></g><g stroke-linecap="round"><g transform="translate(107.77359288897696 623.4657690036759) rotate(0 103.41811054611935 -81.54721912812184)"><path d="M1.6 1.51 C5.72 -24.74, -10.76 -130.24, 23.26 -155.06 C57.28 -179.89, 175.38 -148.59, 205.71 -147.43" stroke="#000000" stroke-width="4.5" fill="none" stroke-dasharray="8 12"></path></g><g transform="translate(107.77359288897696 623.4657690036759) rotate(0 103.41811054611935 -81.54721912812184)"><path d="M178.48 -140.48 C181.71 -142.42, 193.76 -144.63, 207.81 -148.12" stroke="#000000" stroke-width="4.5" fill="none"></path></g><g transform="translate(107.77359288897696 623.4657690036759) rotate(0 103.41811054611935 -81.54721912812184)"><path d="M181.48 -160.78 C184.32 -157.68, 195.63 -154.88, 207.81 -148.12" stroke="#000000" stroke-width="4.5" fill="none"></path></g></g><g stroke-linecap="round"><g transform="translate(1034.5457165107084 477.493933343749) rotate(0 44.19937143607194 1.4413530853000793)"><path d="M2.08 2.01 C16.86 2.26, 71.57 1.3, 86.32 0.83" stroke="#1864ab" stroke-width="4.5" fill="none" stroke-dasharray="8 12"></path></g></g><g stroke-linecap="round"><g transform="translate(1426.6054817188192 482.58743446151016) rotate(0 62.20567607185501 0.23875101516054542)"><path d="M1.85 1.04 C21.85 1.19, 102.26 -0.25, 122.57 -0.57" stroke="#1864ab" stroke-width="4.5" fill="none" stroke-dasharray="8 12"></path></g><g transform="translate(1426.6054817188192 482.58743446151016) rotate(0 62.20567607185501 0.23875101516054542)"><path d="M96.03 11.99 C109.37 8.97, 119.88 -1.43, 126.15 1" stroke="#1864ab" stroke-width="4.5" fill="none"></path></g><g transform="translate(1426.6054817188192 482.58743446151016) rotate(0 62.20567607185501 0.23875101516054542)"><path d="M95.69 -8.53 C108.95 -3.52, 119.59 -5.89, 126.15 1" stroke="#1864ab" stroke-width="4.5" fill="none"></path></g></g><g stroke-linecap="round"><g transform="translate(1011.8381075901427 934.5815120918797) rotate(0 44.22405157370622 -0.00015792000664305306)"><path d="M2.05 -0.13 C16.54 -0.55, 72.02 0.66, 86.39 0.04" stroke="#1864ab" stroke-width="4.5" fill="none" stroke-dasharray="8 12"></path></g></g><g stroke-linecap="round"><g transform="translate(1392.286346650975 936.6306049413996) rotate(0 59.50015000522433 -2.131456404793198)"><path d="M2.67 -1.07 C21.6 -1.15, 98.03 -2.53, 116.33 -3.19" stroke="#1864ab" stroke-width="4.5" fill="none" stroke-dasharray="8 12"></path></g><g transform="translate(1392.286346650975 936.6306049413996) rotate(0 59.50015000522433 -2.131456404793198)"><path d="M86.87 10.03 C99.11 -0.41, 107.65 1.38, 119.45 -3.8" stroke="#1864ab" stroke-width="4.5" fill="none"></path></g><g transform="translate(1392.286346650975 936.6306049413996) rotate(0 59.50015000522433 -2.131456404793198)"><path d="M86.35 -10.48 C98.39 -12.75, 107.15 -2.78, 119.45 -3.8" stroke="#1864ab" stroke-width="4.5" fill="none"></path></g></g><g stroke-linecap="round"><g transform="translate(83.51469980854768 779.1364310375604) rotate(0 114.7840750730141 80.28041519327144)"><path d="M-0.69 -0.64 C5.22 24.75, -3.59 125.27, 34.91 150.26 C73.4 175.26, 198.33 149.64, 230.26 149.33" stroke="#000000" stroke-width="4.5" fill="none" stroke-dasharray="8 12"></path></g><g transform="translate(83.51469980854768 779.1364310375604) rotate(0 114.7840750730141 80.28041519327144)"><path d="M202.36 160.82 C209.94 162.69, 218.9 153.65, 229.32 148.26" stroke="#000000" stroke-width="4.5" fill="none"></path></g><g transform="translate(83.51469980854768 779.1364310375604) rotate(0 114.7840750730141 80.28041519327144)"><path d="M200.25 140.41 C208.11 147.98, 217.67 144.63, 229.32 148.26" stroke="#000000" stroke-width="4.5" fill="none"></path></g></g><g stroke-linecap="round" transform="translate(1555.4737920009443 381.45501346160717) rotate(0 359.5 104.27694770544295)"><path d="M52.14 0 M52.14 0 C196.21 5.34, 340.71 3.92, 666.86 0 M666.86 0 C704.97 0.83, 719.51 20.01, 719 52.14 M719 52.14 C717.84 80.3, 724.42 104.43, 719 156.42 M719 156.42 C715.32 188.31, 700.84 204.83, 666.86 208.55 M666.86 208.55 C450.04 204.82, 233.93 203.53, 52.14 208.55 M52.14 208.55 C16.51 210.23, -2.55 191.54, 0 156.42 M0 156.42 C1.05 125.16, -3.9 102.48, 0 52.14 M0 52.14 C2.5 16.55, 17.89 -2.32, 52.14 0" stroke="#d9480f" stroke-width="4.5" fill="none" stroke-dasharray="8 12"></path></g><g transform="translate(1560.4737920009443 463.2319611670501) rotate(0 354.5 22.5)"><text x="354.5" y="32" font-family="Virgil, Segoe UI Emoji" font-size="36px" fill="#d9480f" text-anchor="middle" style="white-space: pre;" direction="ltr">Topic: "ECOMMERCE_NEWORDER" </text></g><g stroke-linecap="round" transform="translate(1521.7752257852662 830.8582011291204) rotate(0 359.5 104.27694770544292)"><path d="M52.14 0 M52.14 0 C211.9 4.46, 368.7 5.17, 666.86 0 M666.86 0 C698.79 -1.93, 715.1 20.53, 719 52.14 M719 52.14 C716.43 76.85, 718.71 90.99, 719 156.42 M719 156.42 C720.54 191.7, 700.8 208.62, 666.86 208.55 M666.86 208.55 C437.58 213.79, 208.87 212.78, 52.14 208.55 M52.14 208.55 C14.02 208.41, 1.15 194.63, 0 156.42 M0 156.42 C-0.54 132.97, -5.34 107.23, 0 52.14 M0 52.14 C-1.02 14.4, 20.89 2.21, 52.14 0" stroke="#d9480f" stroke-width="4.5" fill="none" stroke-dasharray="8 12"></path></g><g transform="translate(1526.7752257852662 912.6351488345633) rotate(0 354.5 22.5)"><text x="354.5" y="32" font-family="Virgil, Segoe UI Emoji" font-size="36px" fill="#d9480f" text-anchor="middle" style="white-space: pre;" direction="ltr">Topic: "ECOMMERCE_SENDEMAIL" </text></g><g stroke-linecap="round" transform="translate(1856.9584915462347 1260.555744656237) rotate(0 189.72236832312 66.52796040390024)"><path d="M33.26 0 M33.26 0 C151.22 0.02, 268.13 1.9, 346.18 0 M346.18 0 C370.06 -0.65, 375.58 12.35, 379.44 33.26 M379.44 33.26 C382.01 55.83, 378.1 78.84, 379.44 99.79 M379.44 99.79 C377.56 123.2, 370.65 130.23, 346.18 133.06 M346.18 133.06 C258.85 130.56, 169.21 131.07, 33.26 133.06 M33.26 133.06 C13.6 132.65, -0.73 124.34, 0 99.79 M0 99.79 C1.14 75.69, -3.66 54.73, 0 33.26 M0 33.26 C-0.08 10.99, 14.76 3.01, 33.26 0" stroke="#000000" stroke-width="4.5" fill="none" stroke-dasharray="8 12"></path></g><g transform="translate(1889.868743694332 1292.5837050601374) rotate(0 161 35)"><text x="0" y="49" font-family="Virgil, Segoe UI Emoji" font-size="55.199999999999946px" fill="#000000" text-anchor="start" style="white-space: pre;" direction="ltr">EmailService</text></g><g stroke-linecap="round" transform="translate(2317.328790907389 1055.1821794089758) rotate(0 307.5702444649796 104.27694770544292)"><path d="M52.14 0 M52.14 0 C191.76 1.89, 330.69 3.46, 563 0 M563 0 C598.36 3.71, 615.28 16.25, 615.14 52.14 M615.14 52.14 C615.79 85.04, 614.61 125.95, 615.14 156.42 M615.14 156.42 C614 192.67, 596.51 211.24, 563 208.55 M563 208.55 C455.83 209.1, 345.66 209.19, 52.14 208.55 M52.14 208.55 C17.38 209.3, -2.31 191.78, 0 156.42 M0 156.42 C-0.07 130.44, 3.71 104.35, 0 52.14 M0 52.14 C-0.14 15.78, 15.08 3.12, 52.14 0" stroke="#000000" stroke-width="4.5" fill="none" stroke-dasharray="8 12"></path></g><g transform="translate(2354.174824347446 1122.593065214739) rotate(0 173.5 35)"><text x="0" y="49" font-family="Virgil, Segoe UI Emoji" font-size="55.199999999999946px" fill="#000000" text-anchor="start" style="white-space: pre;" direction="ltr">KafkaService</text></g><g transform="translate(2704.7341508609925 1130.556331074029) rotate(0 98 35)"><text x="0" y="49" font-family="Virgil, Segoe UI Emoji" font-size="55.199999999999946px" fill="#1864ab" text-anchor="start" style="white-space: pre;" direction="ltr">&lt;Email&gt;</text></g><g stroke-linecap="round"><g transform="translate(2240.3558132205953 1350.633775505891) rotate(0 149.23191439221864 -36.3184541497518)"><path d="M-1.19 -1.63 C43.6 -1.24, 219.42 16.82, 269.02 3.58 C318.61 -9.66, 292 -66.44, 296.37 -81.06" stroke="#000000" stroke-width="4.5" fill="none" stroke-dasharray="8 12"></path></g><g transform="translate(2240.3558132205953 1350.633775505891) rotate(0 149.23191439221864 -36.3184541497518)"><path d="M306.22 -57.54 C303.85 -61.88, 304.21 -71.95, 295.4 -77.63" stroke="#000000" stroke-width="4.5" fill="none"></path></g><g transform="translate(2240.3558132205953 1350.633775505891) rotate(0 149.23191439221864 -36.3184541497518)"><path d="M285.75 -56.12 C289.7 -60.72, 296.38 -71.23, 295.4 -77.63" stroke="#000000" stroke-width="4.5" fill="none"></path></g></g><g stroke-linecap="round"><g transform="translate(2536.489577958023 1051.741857161309) rotate(0 -136.16094606233355 -71.30593291251404)"><path d="M2.55 0.56 C2.51 -21.63, 49.43 -111.68, -0.14 -133.73 C-49.72 -155.77, -245.3 -132.39, -294.92 -131.72" stroke="#e67700" stroke-width="4.5" fill="none" stroke-dasharray="8 12"></path></g><g transform="translate(2536.489577958023 1051.741857161309) rotate(0 -136.16094606233355 -71.30593291251404)"><path d="M-266.65 -141.07 C-272.3 -137.05, -286.43 -137.64, -294.35 -132.16" stroke="#e67700" stroke-width="4.5" fill="none"></path></g><g transform="translate(2536.489577958023 1051.741857161309) rotate(0 -136.16094606233355 -71.30593291251404)"><path d="M-265.34 -120.59 C-271.3 -122.73, -285.82 -129.5, -294.35 -132.16" stroke="#e67700" stroke-width="4.5" fill="none"></path></g></g><g transform="translate(2412.0683607997134 923.2513964472895) rotate(0 61.5 35)"><text x="0" y="49" font-family="Virgil, Segoe UI Emoji" font-size="55.199999999999946px" fill="#e67700" text-anchor="start" style="white-space: pre;" direction="ltr">read</text></g><g stroke-linecap="round" transform="translate(1660.2838344783272 10) rotate(0 314.71504949512473 72.62516436351014)"><path d="M36.31 0 M36.31 0 C167.5 4.87, 299.78 4.89, 593.12 0 M593.12 0 C619.7 3.78, 631.69 8.75, 629.43 36.31 M629.43 36.31 C627.91 52.19, 624.17 75.16, 629.43 108.94 M629.43 108.94 C633.32 136.32, 619.14 145.52, 593.12 145.25 M593.12 145.25 C408.48 143.54, 226.09 143.17, 36.31 145.25 M36.31 145.25 C14.72 145.53, -2.05 129.58, 0 108.94 M0 108.94 C2.22 84.48, 1.97 64.46, 0 36.31 M0 36.31 C1.91 13.65, 14.36 -3.96, 36.31 0" stroke="#000000" stroke-width="4.5" fill="none" stroke-dasharray="8 12"></path></g><g stroke-linecap="round" transform="translate(2419.41712786037 185.65315128480643) rotate(0 322.8132543640047 104.27694770544294)"><path d="M52.14 0 M52.14 0 C184.29 2.91, 317.05 2.86, 593.49 0 M593.49 0 C624.89 -1.56, 641.71 20.82, 645.63 52.14 M645.63 52.14 C644.95 87.06, 647.2 116.03, 645.63 156.42 M645.63 156.42 C645.9 192.36, 629.21 207.01, 593.49 208.55 M593.49 208.55 C465.95 210.02, 339.25 208.15, 52.14 208.55 M52.14 208.55 C13.81 209.17, 1.4 191.7, 0 156.42 M0 156.42 C2.15 119.92, 2.35 81.87, 0 52.14 M0 52.14 C-3.96 14.88, 15.09 -0.92, 52.14 0" stroke="#000000" stroke-width="4.5" fill="none" stroke-dasharray="8 12"></path></g><g stroke-linecap="round"><g transform="translate(2289.7858302334603 76.17192238468678) rotate(0 203.07278692208092 52.983485960505675)"><path d="M2.64 1.58 C61.61 3.55, 287.76 -3.64, 354.57 13.49 C421.38 30.63, 394.9 90, 403.5 104.39" stroke="#000000" stroke-width="4.5" fill="none" stroke-dasharray="8 12"></path></g><g transform="translate(2289.7858302334603 76.17192238468678) rotate(0 203.07278692208092 52.983485960505675)"><path d="M393.38 73.7 C393.96 81.88, 403.02 94.67, 400.42 100.55" stroke="#000000" stroke-width="4.5" fill="none"></path></g><g transform="translate(2289.7858302334603 76.17192238468678) rotate(0 203.07278692208092 52.983485960505675)"><path d="M413.85 72.14 C407.72 81.21, 410.07 94.52, 400.42 100.55" stroke="#000000" stroke-width="4.5" fill="none"></path></g></g><g transform="translate(2821.7113036524142 264.2791546333014) rotate(0 105 35)"><text x="0" y="49" font-family="Virgil, Segoe UI Emoji" font-size="55.199999999999946px" fill="#1864ab" text-anchor="start" style="white-space: pre;" direction="ltr">&lt;Order&gt;</text></g><g transform="translate(1686.3932309330921 47.593155747307264) rotate(0 294 35)"><text x="0" y="49" font-family="Virgil, Segoe UI Emoji" font-size="55.199999999999946px" fill="#000000" text-anchor="start" style="white-space: pre;" direction="ltr">FraudDetectorService</text></g><g transform="translate(2464.610316230875 258.6524673133697) rotate(0 173.5 35)"><text x="0" y="49" font-family="Virgil, Segoe UI Emoji" font-size="55.199999999999946px" fill="#000000" text-anchor="start" style="white-space: pre;" direction="ltr">KafkaService</text></g><g stroke-linecap="round"><g transform="translate(2678.7583426282745 397.3049346267396) rotate(0 -191.60625582040234 61.552610314954535)"><path d="M1.22 2.08 C-2.23 21.82, 48.28 99.71, -18.5 116.11 C-85.29 132.5, -336.35 102.87, -399.51 100.46" stroke="#e67700" stroke-width="4.5" fill="none" stroke-dasharray="8 12"></path></g><g transform="translate(2678.7583426282745 397.3049346267396) rotate(0 -191.60625582040234 61.552610314954535)"><path d="M-367.65 95 C-381.33 94.05, -394.32 100.01, -399.43 98.93" stroke="#e67700" stroke-width="4.5" fill="none"></path></g><g transform="translate(2678.7583426282745 397.3049346267396) rotate(0 -191.60625582040234 61.552610314954535)"><path d="M-369.23 115.46 C-381.98 106.74, -394.36 104.94, -399.43 98.93" stroke="#e67700" stroke-width="4.5" fill="none"></path></g></g><g transform="translate(2495.3142634360747 439.53618478179953) rotate(0 61.5 35)"><text x="0" y="49" font-family="Virgil, Segoe UI Emoji" font-size="55.199999999999946px" fill="#e67700" text-anchor="start" style="white-space: pre;" direction="ltr">read</text></g><g stroke-linecap="round" transform="translate(3147.4623592729854 695.7346657786582) rotate(0 170.22519631077898 72.62516436351012)"><path d="M36.31 0 M36.31 0 C99.54 -0.5, 160.18 -3.52, 304.14 0 M304.14 0 C328.71 3.15, 343.39 8.41, 340.45 36.31 M340.45 36.31 C345.44 63.57, 345.43 91.04, 340.45 108.94 M340.45 108.94 C340.23 131.3, 326.05 147.68, 304.14 145.25 M304.14 145.25 C221.62 145.05, 144.93 149.43, 36.31 145.25 M36.31 145.25 C15.65 144.55, 1.62 136.1, 0 108.94 M0 108.94 C0.47 90, -2.4 70.01, 0 36.31 M0 36.31 C-0.54 15.23, 12.78 2.02, 36.31 0" stroke="#000000" stroke-width="4.5" fill="none" stroke-dasharray="8 12"></path></g><g transform="translate(3173.57175572775 733.3278215259654) rotate(0 138.5 70)"><text x="0" y="49" font-family="Virgil, Segoe UI Emoji" font-size="55.199999999999946px" fill="#000000" text-anchor="start" style="white-space: pre;" direction="ltr">LogService</text><text x="0" y="119" font-family="Virgil, Segoe UI Emoji" font-size="55.199999999999946px" fill="#000000" text-anchor="start" style="white-space: pre;" direction="ltr"></text></g><g stroke-linecap="round"><g transform="translate(3145.2848898524426 771.6436904418127) rotate(0 -188.44400197977302 -173.11764675072266)"><path d="M-0.37 -1.56 C-58.12 -1.11, -283.41 64.89, -344.08 2.55 C-404.75 -59.78, -361.07 -312, -364.39 -375.56" stroke="#000000" stroke-width="4.5" fill="none" stroke-dasharray="8 12"></path></g><g transform="translate(3145.2848898524426 771.6436904418127) rotate(0 -188.44400197977302 -173.11764675072266)"><path d="M-357.99 -348.14 C-357.75 -357.77, -359.4 -368.29, -366.04 -371.87" stroke="#000000" stroke-width="4.5" fill="none"></path></g><g transform="translate(3145.2848898524426 771.6436904418127) rotate(0 -188.44400197977302 -173.11764675072266)"><path d="M-378.48 -349.31 C-370.33 -358.43, -364.08 -368.5, -366.04 -371.87" stroke="#000000" stroke-width="4.5" fill="none"></path></g></g><g stroke-linecap="round"><g transform="translate(2808.689209138909 783.1372014905676) rotate(0 -32.01544198227316 133.82262218424432)"><path d="M0.87 2.2 C-7.89 15.64, -42.5 35.65, -53.46 79.52 C-64.43 123.39, -63.33 234.01, -64.9 265.44" stroke="#000000" stroke-width="4.5" fill="none" stroke-dasharray="8 12"></path></g><g transform="translate(2808.689209138909 783.1372014905676) rotate(0 -32.01544198227316 133.82262218424432)"><path d="M-71.34 238.04 C-71.13 245.68, -72.7 256.19, -64.21 261.87" stroke="#000000" stroke-width="4.5" fill="none"></path></g><g transform="translate(2808.689209138909 783.1372014905676) rotate(0 -32.01544198227316 133.82262218424432)"><path d="M-50.82 238.53 C-56.1 246.17, -63.18 256.54, -64.21 261.87" stroke="#000000" stroke-width="4.5" fill="none"></path></g></g><g transform="translate(2839.691545015825 714.4200503160525) rotate(0 46 35)"><text x="0" y="49" font-family="Virgil, Segoe UI Emoji" font-size="55.199999999999946px" fill="#000000" text-anchor="start" style="white-space: pre;" direction="ltr">use</text></g><g transform="translate(130.46845736840658 856.5997837176717) rotate(0 46 35)"><text x="0" y="49" font-family="Virgil, Segoe UI Emoji" font-size="55.199999999999946px" fill="#000000" text-anchor="start" style="white-space: pre;" direction="ltr">use</text></g><g transform="translate(137.4609032734047 467.3536283394692) rotate(0 46 35)"><text x="0" y="49" font-family="Virgil, Segoe UI Emoji" font-size="55.199999999999946px" fill="#000000" text-anchor="start" style="white-space: pre;" direction="ltr">use</text></g></svg>